<?xml version="1.0" encoding="UTF-8" standalone="no"?>
<svg
   id="b"
   viewBox="0 0 48 48"
   version="1.1"
   sodipodi:docname="BuyMeACoffeeWhite.svg"
   inkscape:version="1.2.2 (732a01da63, 2022-12-09)"
   xmlns:inkscape="http://www.inkscape.org/namespaces/inkscape"
   xmlns:sodipodi="http://sodipodi.sourceforge.net/DTD/sodipodi-0.dtd"
   xmlns="http://www.w3.org/2000/svg"
   xmlns:svg="http://www.w3.org/2000/svg">
  <sodipodi:namedview
     id="namedview15"
     pagecolor="#ffffff"
     bordercolor="#000000"
     borderopacity="0.25"
     inkscape:showpageshadow="2"
     inkscape:pageopacity="0.0"
     inkscape:pagecheckerboard="0"
     inkscape:deskcolor="#d1d1d1"
     showgrid="false"
     inkscape:zoom="16.75"
     inkscape:cx="17.820896"
     inkscape:cy="24.029851"
     inkscape:window-width="1920"
     inkscape:window-height="991"
     inkscape:window-x="-9"
     inkscape:window-y="-9"
     inkscape:window-maximized="1"
     inkscape:current-layer="b" />
  <defs
     id="defs4">
    <style
       id="style2">.c{fill:none;stroke:#000;stroke-linecap:round;stroke-linejoin:round;}</style>
  </defs>
  <path
     class="c"
     d="M31.0745,21.766c-.7191-.2456-1.4449-.4088-2.263-.4088-1.415-.0005-2.5551.4868-3.8722,1.0505-1.477.6323-3.1531,1.3492-5.3254,1.3492-.9087-.0018-1.8131-.1265-2.6884-.3706"
     id="path6"
     style="stroke:#ffffff;stroke-opacity:1" />
  <path
     class="c"
     d="M33.9067,17.3164s-2.13,20.3518-2.4941,22.8733c-.3641,2.5215-2.5484,3.3103-5.3396,3.3103h-4.1462c-2.7911,0-4.9755-.7888-5.3396-3.3103s-2.1844-19.2615-2.1844-19.2615"
     id="path8"
     style="stroke:#ffffff;stroke-opacity:1" />
  <path
     class="c"
     d="M29.6745,7.951c-2.0933.4778-3.7481.5688-5.6745.5688s-9.3581-.3186-9.3581-2.1692c0-1.6079,7.4468-1.8506,9.3581-1.8506s8.6367.1709,9.1603,2.1913c.2986,1.1519.9891,5.0596.9891,5.0596"
     id="path10"
     style="stroke:#ffffff;stroke-opacity:1" />
  <path
     class="c"
     d="M24,12.9235c4.1867,0,9.1759-.8933,10.7537-1.1727,1.3501-.239,1.881.9026,2.1237,2.2375s.2939,2.6374-1.2183,2.957-4.6941,1.169-11.6591,1.169-10.1469-.8495-11.6591-1.169-1.461-1.6221-1.2183-2.957.7736-2.4765,2.1237-2.2375c1.5778.2794,6.567,1.1727,10.7537,1.1727Z"
     id="path12"
     style="stroke:#ffffff;stroke-opacity:1" />
</svg>
